HIERARCHY
ROOT newVegas:Hips
{
	OFFSET 0.000000 96.479958 0.000000
	CHANNELS 6 Xposition Yposition Zposition Xrotation Yrotation Zrotation
	JOINT newVegas:Pelvis
	{
		OFFSET 0.000000 0.000000 0.000000
		CHANNELS 3 Xrotation Yrotation Zrotation
		JOINT newVegas:LeftUpLeg
		{
			OFFSET 18.735201 -5.666702 -4.541200
			CHANNELS 3 Xrotation Yrotation Zrotation
			JOINT newVegas:LeftLeg
			{
				OFFSET -0.021200 -31.938179 0.493100
				CHANNELS 3 Xrotation Yrotation Zrotation
				JOINT newVegas:LeftFoot
				{
					OFFSET 0.021200 -31.938179 -4.336299
					CHANNELS 3 Xrotation Yrotation Zrotation
					JOINT newVegas:LeftToeBase
					{
						OFFSET 0.943001 -26.722000 15.023500
						CHANNELS 3 Xrotation Yrotation Zrotation
						End Site
						{
							OFFSET 0.000000 30.670183 0.000000
						}
					}
				}
				JOINT newVegas:Left_PantLeg
				{
					OFFSET 0.663870 -9.044666 -1.108900
					CHANNELS 3 Xrotation Yrotation Zrotation
					End Site
					{
						OFFSET 1.415995 20.635357 0.000000
					}
				}
			}
		}
		JOINT newVegas:RightUpLeg
		{
			OFFSET -18.735201 -5.666702 -4.541200
			CHANNELS 3 Xrotation Yrotation Zrotation
			JOINT newVegas:RightLeg
			{
				OFFSET 0.018946 -31.938133 0.493100
				CHANNELS 3 Xrotation Yrotation Zrotation
				JOINT newVegas:RightFoot
				{
					OFFSET -0.018946 -31.938126 -4.336299
					CHANNELS 3 Xrotation Yrotation Zrotation
					JOINT newVegas:RightToeBase
					{
						OFFSET -0.943001 -26.722004 15.023500
						CHANNELS 3 Xrotation Yrotation Zrotation
						End Site
						{
							OFFSET 0.000000 30.670187 0.000000
						}
					}
				}
				JOINT newVegas:Right_PantLeg
				{
					OFFSET -0.661674 -9.044716 -1.108900
					CHANNELS 3 Xrotation Yrotation Zrotation
					End Site
					{
						OFFSET -1.415958 20.635269 0.000000
					}
				}
			}
		}
	}
	JOINT newVegas:Spine
	{
		OFFSET 0.000000 10.199997 -0.299500
		CHANNELS 3 Xrotation Yrotation Zrotation
		JOINT newVegas:Spine1
		{
			OFFSET 0.000000 11.900002 -1.516600
			CHANNELS 3 Xrotation Yrotation Zrotation
			JOINT newVegas:Spine2
			{
				OFFSET 0.000000 13.600006 -2.842500
				CHANNELS 3 Xrotation Yrotation Zrotation
				JOINT newVegas:Neck
				{
					OFFSET 0.000000 9.624100 -2.890100
					CHANNELS 3 Xrotation Yrotation Zrotation
					JOINT newVegas:Head
					{
						OFFSET 0.000000 14.068802 -1.351900
						CHANNELS 3 Xrotation Yrotation Zrotation
						JOINT newVegas:Hair_Back
						{
							OFFSET 0.000000 3.231903 -17.524799
							CHANNELS 3 Xrotation Yrotation Zrotation
							End Site
							{
								OFFSET 0.000000 19.849884 0.000000
							}
						}
						JOINT newVegas:Hair_Front
						{
							OFFSET 0.000000 31.260406 4.573800
							CHANNELS 3 Xrotation Yrotation Zrotation
							JOINT newVegas:Hair_Front1
							{
								OFFSET 0.000000 2.284103 11.993300
								CHANNELS 3 Xrotation Yrotation Zrotation
								JOINT newVegas:Hair_Front2
								{
									OFFSET 0.000000 2.284103 11.993300
									CHANNELS 3 Xrotation Yrotation Zrotation
									End Site
									{
										OFFSET 0.000000 12.208862 0.000000
									}
								}
							}
						}
						JOINT newVegas:Jowel
						{
							OFFSET 0.000000 -7.458206 6.864100
							CHANNELS 3 Xrotation Yrotation Zrotation
							End Site
							{
								OFFSET 0.000000 19.849884 0.000000
							}
						}
					}
				}
				JOINT newVegas:LeftShoulder
				{
					OFFSET 15.263000 10.923401 -0.547700
					CHANNELS 3 Xrotation Yrotation Zrotation
					JOINT newVegas:LeftArm
					{
						OFFSET 25.438599 -2.830597 -13.032500
						CHANNELS 3 Xrotation Yrotation Zrotation
						JOINT newVegas:LeftForeArm
						{
							OFFSET 29.960503 0.000000 0.000000
							CHANNELS 3 Xrotation Yrotation Zrotation
							JOINT newVegas:LeftHand
							{
								OFFSET 27.849251 0.000000 0.000000
								CHANNELS 3 Xrotation Yrotation Zrotation
								JOINT newVegas:LeftHandThumb1
								{
									OFFSET 4.487587 -3.305161 6.305391
									CHANNELS 3 Xrotation Yrotation Zrotation
									JOINT newVegas:LeftHandThumb2
									{
										OFFSET 5.480453 -3.164139 3.164143
										CHANNELS 3 Xrotation Yrotation Zrotation
										JOINT newVegas:LeftHandThumb3
										{
											OFFSET 5.159721 -2.978973 2.978967
											CHANNELS 3 Xrotation Yrotation Zrotation
											End Site
											{
												OFFSET 2.494507 5.926697 1.738678
											}
										}
									}
								}
								JOINT newVegas:LeftHandIndex1
								{
									OFFSET 18.578728 -0.527832 5.208049
									CHANNELS 3 Xrotation Yrotation Zrotation
									JOINT newVegas:LeftHandIndex2
									{
										OFFSET 3.192009 0.000000 0.000000
										CHANNELS 3 Xrotation Yrotation Zrotation
										JOINT newVegas:LeftHandIndex3
										{
											OFFSET 3.835129 0.000000 0.000000
											CHANNELS 3 Xrotation Yrotation Zrotation
											End Site
											{
												OFFSET -0.034599 3.816971 0.371180
											}
										}
									}
								}
								JOINT newVegas:LeftHandMiddle1
								{
									OFFSET 18.476105 0.000000 0.000000
									CHANNELS 3 Xrotation Yrotation Zrotation
									JOINT newVegas:LeftHandMiddle2
									{
										OFFSET 3.324875 0.000000 0.000000
										CHANNELS 3 Xrotation Yrotation Zrotation
										JOINT newVegas:LeftHandMiddle3
										{
											OFFSET 4.596550 0.000000 0.000000
											CHANNELS 3 Xrotation Yrotation Zrotation
											End Site
											{
												OFFSET 0.057701 4.578827 0.399218
											}
										}
									}
								}
								JOINT newVegas:LeftHandRing1
								{
									OFFSET 17.732719 0.121887 -4.201567
									CHANNELS 3 Xrotation Yrotation Zrotation
									JOINT newVegas:LeftHandRing2
									{
										OFFSET 2.733170 0.000000 0.000000
										CHANNELS 3 Xrotation Yrotation Zrotation
										JOINT newVegas:LeftHandRing3
										{
											OFFSET 3.178268 0.000000 0.000000
											CHANNELS 3 Xrotation Yrotation Zrotation
											End Site
											{
												OFFSET 0.119102 3.170624 0.185394
											}
										}
									}
								}
								JOINT newVegas:LeftHandPinky1
								{
									OFFSET 15.989624 -0.606689 -7.535461
									CHANNELS 3 Xrotation Yrotation Zrotation
									JOINT newVegas:LeftHandPinky2
									{
										OFFSET 2.538986 0.000000 0.000000
										CHANNELS 3 Xrotation Yrotation Zrotation
										JOINT newVegas:LeftHandPinky3
										{
											OFFSET 2.593102 0.000000 0.000000
											CHANNELS 3 Xrotation Yrotation Zrotation
											End Site
											{
												OFFSET -0.150902 2.584198 0.152708
											}
										}
									}
								}
							}
							JOINT newVegas:Left_Sleeve
							{
								OFFSET 0.267448 -0.649796 0.577675
								CHANNELS 3 Xrotation Yrotation Zrotation
								End Site
								{
									OFFSET 0.000000 15.991241 0.000000
								}
							}
							JOINT newVegas:Left_CapeC
							{
								OFFSET 15.715958 -8.608795 -6.935905
								CHANNELS 3 Xrotation Yrotation Zrotation
								JOINT newVegas:Left_CapeC1
								{
									OFFSET 0.000000 -8.688499 0.000000
									CHANNELS 3 Xrotation Yrotation Zrotation
									End Site
									{
										OFFSET 0.000000 8.688499 0.000000
									}
								}
							}
						}
						JOINT newVegas:Left_CapeB
						{
							OFFSET 26.118385 -8.608795 -7.079235
							CHANNELS 3 Xrotation Yrotation Zrotation
							JOINT newVegas:Left_CapeB1
							{
								OFFSET 0.000000 -8.688499 0.000000
								CHANNELS 3 Xrotation Yrotation Zrotation
								End Site
								{
									OFFSET 0.000000 8.688499 0.000000
								}
							}
						}
						JOINT newVegas:Left_CapeA
						{
							OFFSET 5.115639 -8.608795 -10.395809
							CHANNELS 3 Xrotation Yrotation Zrotation
							JOINT newVegas:Left_CapeA1
							{
								OFFSET 0.000000 -8.688499 0.000000
								CHANNELS 3 Xrotation Yrotation Zrotation
								End Site
								{
									OFFSET 0.000000 8.688499 0.000000
								}
							}
						}
					}
				}
				JOINT newVegas:RightShoulder
				{
					OFFSET -15.263000 10.923401 -0.547700
					CHANNELS 3 Xrotation Yrotation Zrotation
					JOINT newVegas:RightArm
					{
						OFFSET -25.438599 -2.830597 -13.032500
						CHANNELS 3 Xrotation Yrotation Zrotation
						JOINT newVegas:RightForeArm
						{
							OFFSET -29.960503 0.000000 0.000000
							CHANNELS 3 Xrotation Yrotation Zrotation
							JOINT newVegas:RightHand
							{
								OFFSET -27.849251 0.000000 0.000000
								CHANNELS 3 Xrotation Yrotation Zrotation
								JOINT newVegas:RightHandThumb1
								{
									OFFSET -4.487587 -3.305161 6.305391
									CHANNELS 3 Xrotation Yrotation Zrotation
									JOINT newVegas:RightHandThumb2
									{
										OFFSET -5.480453 -3.164139 3.164143
										CHANNELS 3 Xrotation Yrotation Zrotation
										JOINT newVegas:RightHandThumb3
										{
											OFFSET -5.159721 -2.978973 2.978967
											CHANNELS 3 Xrotation Yrotation Zrotation
											End Site
											{
												OFFSET -2.494507 5.926697 1.738678
											}
										}
									}
								}
								JOINT newVegas:RightHandIndex1
								{
									OFFSET -18.578728 -0.527832 5.208049
									CHANNELS 3 Xrotation Yrotation Zrotation
									JOINT newVegas:RightHandIndex2
									{
										OFFSET -3.192009 0.000000 0.000000
										CHANNELS 3 Xrotation Yrotation Zrotation
										JOINT newVegas:RightHandIndex3
										{
											OFFSET -3.835129 0.000000 0.000000
											CHANNELS 3 Xrotation Yrotation Zrotation
											End Site
											{
												OFFSET 0.034599 3.816971 0.371180
											}
										}
									}
								}
								JOINT newVegas:RightHandMiddle1
								{
									OFFSET -18.476105 0.000000 0.000000
									CHANNELS 3 Xrotation Yrotation Zrotation
									JOINT newVegas:RightHandMiddle2
									{
										OFFSET -3.324875 0.000000 0.000000
										CHANNELS 3 Xrotation Yrotation Zrotation
										JOINT newVegas:RightHandMiddle3
										{
											OFFSET -4.596550 0.000000 0.000000
											CHANNELS 3 Xrotation Yrotation Zrotation
											End Site
											{
												OFFSET -0.057701 4.578827 0.399218
											}
										}
									}
								}
								JOINT newVegas:RightHandRing1
								{
									OFFSET -17.732719 0.121887 -4.201567
									CHANNELS 3 Xrotation Yrotation Zrotation
									JOINT newVegas:RightHandRing2
									{
										OFFSET -2.733170 0.000000 0.000000
										CHANNELS 3 Xrotation Yrotation Zrotation
										JOINT newVegas:RightHandRing3
										{
											OFFSET -3.178268 0.000000 0.000000
											CHANNELS 3 Xrotation Yrotation Zrotation
											End Site
											{
												OFFSET -0.119102 3.170624 0.185394
											}
										}
									}
								}
								JOINT newVegas:RightHandPinky1
								{
									OFFSET -15.989624 -0.606689 -7.535461
									CHANNELS 3 Xrotation Yrotation Zrotation
									JOINT newVegas:RightHandPinky2
									{
										OFFSET -2.538986 0.000000 0.000000
										CHANNELS 3 Xrotation Yrotation Zrotation
										JOINT newVegas:RightHandPinky3
										{
											OFFSET -2.593102 0.000000 0.000000
											CHANNELS 3 Xrotation Yrotation Zrotation
											End Site
											{
												OFFSET 0.150902 2.584198 0.152708
											}
										}
									}
								}
							}
							JOINT newVegas:Right_CapeC
							{
								OFFSET -15.715958 -8.608795 -6.935905
								CHANNELS 3 Xrotation Yrotation Zrotation
								JOINT newVegas:Right_CapeC1
								{
									OFFSET 0.000000 -8.688499 0.000000
									CHANNELS 3 Xrotation Yrotation Zrotation
									End Site
									{
										OFFSET 0.000000 8.688499 0.000000
									}
								}
							}
							JOINT newVegas:Right_Sleeve
							{
								OFFSET -0.267448 -0.649994 0.577675
								CHANNELS 3 Xrotation Yrotation Zrotation
								End Site
								{
									OFFSET 0.000000 15.991302 0.000000
								}
							}
						}
						JOINT newVegas:Right_CapeA
						{
							OFFSET -5.115540 -8.608795 -10.395824
							CHANNELS 3 Xrotation Yrotation Zrotation
							JOINT newVegas:Right_CapeA1
							{
								OFFSET 0.000000 -8.688499 0.000000
								CHANNELS 3 Xrotation Yrotation Zrotation
								End Site
								{
									OFFSET 0.000000 8.688499 0.000000
								}
							}
						}
						JOINT newVegas:Right_CapeB
						{
							OFFSET -26.118187 -8.608795 -7.079266
							CHANNELS 3 Xrotation Yrotation Zrotation
							JOINT newVegas:Right_CapeB1
							{
								OFFSET 0.000000 -8.688499 0.000000
								CHANNELS 3 Xrotation Yrotation Zrotation
								End Site
								{
									OFFSET 0.000000 8.688499 0.000000
								}
							}
						}
					}
				}
				JOINT newVegas:Left_Collar
				{
					OFFSET 18.625099 8.655502 8.828100
					CHANNELS 3 Xrotation Yrotation Zrotation
					JOINT newVegas:Left_Collar1
					{
						OFFSET 14.783401 10.540405 -1.259500
						CHANNELS 3 Xrotation Yrotation Zrotation
						End Site
						{
							OFFSET 0.000000 18.199875 0.000000
						}
					}
				}
				JOINT newVegas:Collar_Back
				{
					OFFSET 0.000000 15.630707 -20.132601
					CHANNELS 3 Xrotation Yrotation Zrotation
					End Site
					{
						OFFSET 0.000000 22.523010 0.000000
					}
				}
				JOINT newVegas:Left_Peck
				{
					OFFSET 17.239599 -5.132599 25.482599
					CHANNELS 3 Xrotation Yrotation Zrotation
					End Site
					{
						OFFSET 0.000000 22.523010 0.000000
					}
				}
				JOINT newVegas:Right_Peck
				{
					OFFSET -17.239599 -5.132202 25.482599
					CHANNELS 3 Xrotation Yrotation Zrotation
					End Site
					{
						OFFSET 0.000000 22.523010 0.000000
					}
				}
				JOINT newVegas:Right_Collar
				{
					OFFSET -18.625099 8.655792 8.828100
					CHANNELS 3 Xrotation Yrotation Zrotation
					JOINT newVegas:Right_Collar1
					{
						OFFSET -14.783401 10.539993 -1.259500
						CHANNELS 3 Xrotation Yrotation Zrotation
						End Site
						{
							OFFSET 0.000000 18.199631 0.000000
						}
					}
				}
			}
		}
		JOINT newVegas:Belly
		{
			OFFSET 0.000000 -6.540398 9.014299
			CHANNELS 3 Xrotation Yrotation Zrotation
			End Site
			{
				OFFSET 0.000000 11.566666 0.000000
			}
		}
	}
	JOINT newVegas:ElvisFacialAnim_Joint
	{
		OFFSET 1.000000 -95.330101 -8.825800
		CHANNELS 3 Xrotation Yrotation Zrotation
		End Site
		{
			OFFSET 0.000000 35.315800 0.000000
		}
	}
}
MOTION
Frames: 4
Frame Time: 0.033333
-41.370903 91.320602 17.729235 42.526581 -71.426662 38.407902 0.000000 -0.000000 0.000000 -34.901488 3.535567 12.167658 35.730106 -0.535982 1.025397 -13.078267 1.417238 -7.257078 0.000000 -0.000002 -0.000000 0.000001 0.000002 0.000000 -36.771840 -4.767388 -11.065395 31.898787 -7.019875 -0.412552 -1.371784 -5.120306 11.747279 0.000000 -0.000001 0.000000 -0.000000 0.000000 -0.000000 4.782052 0.019327 -4.823734 4.851272 0.631835 -2.998962 4.853844 0.656112 -2.990438 4.206598 2.093563 -0.594645 4.206590 2.093594 -0.594662 -0.000000 0.000000 -0.000001 4.206613 2.093580 -0.594657 4.206613 2.093595 -0.594655 -0.000001 0.000000 0.000000 -0.000000 0.000000 -0.000002 0.400365 -9.823654 -13.047009 -1.095019 -4.764422 -50.737323 0.000010 -46.220727 0.000019 5.671769 5.598873 30.293781 2.333990 -4.852044 -3.963505 13.533757 36.265897 -6.789638 -0.000001 -0.000001 -0.000001 2.878048 7.353400 -58.659679 6.385724 5.826668 -95.251878 -0.000000 -0.000001 0.000001 2.878055 7.353377 -58.659686 6.420558 5.823354 -95.595259 0.000000 -0.000000 -0.000001 3.051706 7.454218 -60.629718 5.249920 5.820195 -84.092838 -0.000001 0.000001 0.000003 2.878055 7.353410 -58.659673 3.100861 5.166397 -61.922242 0.000002 -0.000003 -0.000001 0.000000 -0.000000 -0.000000 0.000000 -0.000000 -0.000000 0.000000 0.000000 -0.000000 -0.000000 0.000003 -0.000000 -0.000000 0.000003 -0.000000 -0.000000 0.000003 -0.000000 -0.000000 0.000002 -0.000000 0.782425 8.509072 5.308944 -22.006304 -30.229184 33.992055 -0.000004 54.272533 0.000000 24.565306 24.616671 -41.266726 -14.664191 5.652253 -10.021257 7.161023 -21.177174 -2.649991 0.000001 -0.000000 -0.000001 3.630053 7.386162 -21.994737 0.063789 -0.768989 9.483596 -0.000000 0.000002 0.000001 0.069373 -1.836549 -5.476595 -0.000001 -0.001079 0.013254 0.000000 -0.000001 0.000001 -0.405975 -7.017781 -5.456767 0.302797 -1.653447 20.753572 0.000000 0.000001 0.000000 -8.247410 -22.691895 -22.901746 0.204649 -1.366735 17.030537 0.000001 0.000002 -0.000001 -0.000000 0.000000 -0.000001 -0.000000 0.000000 -0.000001 -0.000000 0.000000 0.000000 0.000000 0.000000 0.000003 -0.000000 0.000000 0.000003 0.000000 0.000000 0.000003 -0.000000 0.000000 0.000003 0.000001 0.000000 0.000000 0.000001 0.000000 0.000000 0.000001 0.000000 0.000000 0.000001 0.000000 0.000000 0.000001 0.000000 0.000000 0.000001 0.000000 0.000000 0.000001 0.000000 0.000000 0.000001 0.000000 0.000001 0.000000 -0.000000 0.000000 
-41.849415 90.930305 17.034719 38.946920 -70.360784 35.347926 -0.000000 -0.000000 -0.000000 -35.138625 3.023928 12.093439 36.097997 -1.659449 1.092430 -12.969166 1.480408 -7.770650 -0.000000 -0.000002 -0.000000 0.000001 0.000000 0.000001 -35.303530 -5.218648 -11.988450 30.772249 -6.958009 -0.623149 -1.909832 -5.538885 13.822215 0.000000 0.000000 0.000000 0.000001 -0.000000 -0.000002 4.796039 -0.058368 -4.162828 4.858489 0.455620 -2.627132 4.858847 0.496641 -2.621957 4.263281 2.138227 -0.632830 4.263303 2.138190 -0.632808 -0.000001 0.000001 -0.000000 4.263301 2.138243 -0.632830 4.263325 2.138151 -0.632815 -0.000001 -0.000001 -0.000000 -0.000001 0.000001 -0.000000 0.364540 -10.429777 -13.339528 -1.646426 -5.508145 -50.123661 0.000000 -45.056361 0.000005 4.784757 5.381050 29.225850 2.333992 -4.852043 -3.963509 13.533762 36.265900 -6.789644 0.000001 0.000000 -0.000006 2.878047 7.353401 -58.659686 6.385726 5.826668 -95.251878 0.000001 0.000002 -0.000003 2.878051 7.353376 -58.659686 6.420557 5.823354 -95.595259 0.000001 -0.000002 0.000001 3.051705 7.454218 -60.629718 5.249923 5.820192 -84.092831 -0.000000 0.000003 0.000001 2.878061 7.353410 -58.659673 3.100864 5.166397 -61.922242 -0.000000 -0.000002 -0.000000 -0.000000 -0.000001 0.000000 -0.000000 -0.000001 0.000000 -0.000000 -0.000000 0.000000 0.000000 0.000000 0.000000 0.000000 0.000001 0.000000 0.000000 0.000000 0.000000 -0.000000 -0.000000 0.000001 0.786971 8.505070 5.199682 -22.352644 -30.377956 33.793105 -0.000003 54.818753 -0.000001 24.898130 24.666173 -41.467250 -14.664184 5.652251 -10.021246 7.161020 -21.177181 -2.649992 0.000002 0.000001 0.000001 3.630054 7.386162 -21.994724 0.063790 -0.768988 9.483591 -0.000001 -0.000000 0.000003 0.069374 -1.836545 -5.476597 0.000002 -0.001078 0.013263 0.000001 -0.000000 -0.000000 -0.405974 -7.017782 -5.456767 0.302795 -1.653451 20.753581 -0.000000 0.000001 -0.000000 -8.247412 -22.691891 -22.901752 0.204648 -1.366744 17.030529 0.000000 0.000001 0.000002 0.000001 -0.000003 0.000001 0.000001 -0.000003 0.000001 0.000001 -0.000003 0.000001 0.000000 0.000000 0.000001 0.000000 0.000000 0.000002 0.000000 0.000000 0.000001 0.000000 0.000000 0.000002 -0.000000 0.000001 -0.000000 -0.000000 0.000001 -0.000000 -0.000000 0.000001 -0.000000 -0.000000 0.000001 -0.000000 -0.000000 0.000001 -0.000000 -0.000000 0.000001 -0.000000 -0.000000 0.000001 -0.000000 0.000001 0.000000 0.000000 -0.000000 -0.000000 -0.000000 
-42.142494 90.822296 16.450747 37.229339 -69.564520 33.462811 -0.000000 -0.000000 0.000000 -35.472926 2.399867 12.483948 36.120895 -2.357658 1.340405 -12.686475 1.546385 -8.368403 0.000000 0.000000 -0.000000 -0.000002 0.000001 -0.000000 -34.773224 -6.040061 -11.451326 31.797365 -7.208772 -0.387467 -3.631133 -5.730641 12.588246 0.000000 0.000000 -0.000000 0.000000 0.000000 -0.000001 4.763520 0.012348 -3.120681 4.813281 0.386580 -2.012831 4.808448 0.452348 -2.014226 4.309693 2.195483 -0.675957 4.309697 2.195515 -0.675970 -0.000000 0.000001 -0.000002 4.309735 2.195506 -0.675969 4.309680 2.195533 -0.675972 -0.000000 -0.000001 -0.000000 -0.000000 0.000001 -0.000003 0.330271 -10.893362 -13.624839 -2.816929 -6.400516 -49.996616 -0.000010 -42.875652 -0.000009 3.942357 4.709602 27.937970 2.333995 -4.852043 -3.963493 13.533759 36.265897 -6.789636 0.000001 -0.000003 -0.000010 2.878049 7.353401 -58.659673 6.385727 5.826670 -95.251872 0.000000 -0.000003 0.000001 2.878053 7.353376 -58.659686 6.420558 5.823354 -95.595259 0.000000 -0.000001 -0.000001 3.051707 7.454222 -60.629718 5.249920 5.820192 -84.092831 -0.000000 0.000001 0.000003 2.878062 7.353408 -58.659666 3.100864 5.166392 -61.922242 0.000001 -0.000005 0.000001 0.000000 -0.000000 -0.000000 0.000000 -0.000000 -0.000000 0.000000 -0.000000 -0.000000 0.000000 0.000000 -0.000001 0.000000 -0.000001 -0.000001 0.000000 0.000000 -0.000001 0.000000 -0.000002 -0.000001 0.797806 8.651749 5.084269 -22.614773 -30.095842 33.754054 0.000000 54.829118 -0.000012 25.436714 24.580575 -41.699125 -14.664184 5.652246 -10.021248 7.161017 -21.177177 -2.649980 0.000001 -0.000002 -0.000001 3.630057 7.386162 -21.994722 0.063789 -0.768987 9.483607 -0.000000 0.000001 0.000005 0.069376 -1.836547 -5.476593 0.000001 -0.001079 0.013264 -0.000001 -0.000001 -0.000002 -0.405972 -7.017783 -5.456762 0.302796 -1.653452 20.753572 -0.000001 0.000001 -0.000001 -8.247411 -22.691905 -22.901749 0.204653 -1.366749 17.030527 -0.000001 -0.000000 -0.000001 -0.000000 0.000005 0.000000 -0.000000 0.000001 0.000001 -0.000000 0.000005 0.000000 0.000000 0.000000 0.000003 0.000000 0.000000 0.000001 0.000000 0.000000 0.000003 0.000000 0.000000 0.000003 -0.000001 0.000000 -0.000001 -0.000001 0.000000 -0.000001 -0.000001 0.000000 -0.000001 -0.000001 0.000000 -0.000001 -0.000001 0.000000 -0.000001 -0.000001 0.000000 -0.000001 -0.000001 0.000000 -0.000001 -0.000001 0.000001 -0.000000 -0.000000 -0.000000 0.000000 
-42.330086 91.043961 16.016031 37.317688 -69.413157 33.167054 0.000000 -0.000000 0.000000 -35.164676 2.202982 13.054634 35.122414 -2.504751 1.617196 -12.137691 1.594788 -8.941715 0.000000 -0.000001 -0.000000 0.000000 -0.000001 -0.000000 -34.171573 -6.847708 -10.684561 30.671231 -7.443664 0.086846 -3.186395 -5.307938 10.885254 -0.000000 0.000000 0.000000 -0.000001 -0.000000 -0.000000 4.697020 0.181702 -2.166774 4.740031 0.438041 -1.437909 4.730881 0.517423 -1.445552 4.331507 2.272358 -0.684000 4.331513 2.272351 -0.684007 0.000000 0.000000 0.000001 4.331524 2.272350 -0.684011 4.331594 2.272359 -0.684004 -0.000000 0.000001 -0.000002 0.000000 0.000000 0.000000 0.308136 -11.113795 -13.832156 -4.242023 -7.044681 -50.344477 -0.000037 -40.177625 -0.000033 3.410175 3.867281 26.796876 2.333992 -4.852043 -3.963498 13.533758 36.265897 -6.789636 -0.000001 0.000001 -0.000001 2.878048 7.353398 -58.659679 6.385725 5.826670 -95.251872 0.000000 -0.000001 -0.000003 2.878053 7.353377 -58.659679 6.420557 5.823355 -95.595259 -0.000000 -0.000000 0.000003 3.051704 7.454220 -60.629711 5.249919 5.820195 -84.092831 -0.000001 0.000003 0.000002 2.878060 7.353411 -58.659673 3.100864 5.166399 -61.922249 0.000001 -0.000005 0.000001 0.000000 0.000001 -0.000001 0.000000 0.000001 -0.000001 0.000000 0.000002 -0.000002 0.000000 0.000002 -0.000000 0.000000 0.000002 -0.000000 0.000000 0.000002 -0.000000 0.000000 0.000002 0.000000 0.813265 8.933096 5.000678 -22.733451 -29.339289 33.838929 -0.000003 54.390613 -0.000001 25.986814 24.381390 -41.787340 -14.664187 5.652253 -10.021254 7.161020 -21.177176 -2.649993 -0.000000 0.000002 0.000001 3.630054 7.386165 -21.994744 0.063788 -0.768985 9.483623 0.000001 0.000001 0.000002 0.069372 -1.836538 -5.476600 0.000001 -0.001082 0.013263 -0.000000 -0.000000 0.000000 -0.405970 -7.017787 -5.456762 0.302795 -1.653444 20.753574 0.000000 0.000001 -0.000000 -8.247412 -22.691900 -22.901742 0.204646 -1.366747 17.030517 -0.000001 0.000005 -0.000001 0.000000 0.000002 0.000001 0.000000 -0.000000 0.000001 0.000000 0.000001 0.000000 0.000000 0.000001 0.000004 0.000000 0.000000 0.000004 0.000000 0.000001 0.000004 0.000001 0.000000 0.000006 0.000001 -0.000001 0.000001 0.000001 -0.000001 0.000001 0.000001 -0.000001 0.000001 0.000001 -0.000001 0.000001 0.000001 -0.000001 0.000001 0.000001 -0.000001 0.000001 0.000001 -0.000001 0.000001 -0.000001 -0.000001 -0.000000 0.000000 -0.000000 0.000000 
